<svg xmlns="http://www.w3.org/2000/svg" viewBox="0 0 120 120" fill="none">
  <circle cx="60" cy="60" r="52" fill="#f7f9fc" stroke="#0d3d75" stroke-width="2"/>
  <g stroke="#b8901a" stroke-width="2.5" stroke-linecap="round" transform="translate(32 40)">
    <line x1="10" y1="0" x2="10" y2="24"/>
    <line x1="0" y1="6" x2="20" y2="18"/>
    <line x1="0" y1="18" x2="20" y2="6"/>
    <path d="M10 3 L7 6 M10 3 L13 6 M10 21 L7 18 M10 21 L13 18"/>
    <path d="M2 8 L2 4 L5 4 M18 16 L18 20 L15 20 M2 16 L2 20 L5 20 M18 8 L18 4 L15 4"/>
  </g>
  <path d="M56 42 L88 42 L88 78 L56 78 Z" fill="#ffffff" stroke="#0d3d75" stroke-width="2.5" stroke-linejoin="round"/>
  <line x1="72" y1="42" x2="72" y2="78" stroke="#0d3d75" stroke-width="2"/>
  <rect x="60" y="52" width="24" height="8" fill="#dce4ef" opacity="0.6"/>
  <path d="M64 62 L68 62 L68 68 L64 68 Z M76 62 L80 62 L80 68 L76 68 Z" fill="#b8901a"/>
</svg>
