<svg xmlns="http://www.w3.org/2000/svg" viewBox="0 0 120 120" fill="none">
  <circle cx="60" cy="60" r="52" fill="#f7f9fc" stroke="#0d3d75" stroke-width="2"/>
  <path d="M28 82 Q28 72, 40 70 L80 70 Q92 72, 92 82 L92 88 L28 88 Z" fill="#ffffff" stroke="#0d3d75" stroke-width="2.5" stroke-linejoin="round"/>
  <path d="M60 68 L60 42" stroke="#0d3d75" stroke-width="2.5" stroke-linecap="round"/>
  <path d="M60 52 Q52 42, 44 40 Q42 50, 50 56 Q58 58, 60 52 Z" fill="#b8901a" stroke="#b8901a" stroke-width="1" stroke-linejoin="round"/>
  <path d="M60 48 Q68 38, 76 36 Q78 46, 70 52 Q62 54, 60 48 Z" fill="#b8901a" stroke="#b8901a" stroke-width="1" stroke-linejoin="round"/>
  <circle cx="42" cy="30" r="1.5" fill="#b8901a"/>
  <circle cx="80" cy="28" r="1.5" fill="#b8901a"/>
  <circle cx="72" cy="22" r="1" fill="#b8901a"/>
  <circle cx="50" cy="24" r="1" fill="#b8901a"/>
</svg>
